{"title":"Chicks.Dig.Gay.Guys.2014.BRRip.x264-MenaceIISociety","uid":12081737,"size":1037964597,"categoryP":"video","categoryS":"movies","magnet":"?xt=urn:btih:a8583ce6d065f41f74a28be80df181a49fb75f6e&amp;dn=Chicks.Dig.Gay.Guys.2014.BRRip.x264-MenaceIISociety&amp;tr=udp%3A%2F%2Ftracker.openbittorrent.com%3A80&amp;tr=udp%3A%2F%2Fopen.demonii.com%3A1337&amp;tr=udp%3A%2F%2Ftracker.coppersurfer.tk%3A6969&amp;tr=udp%3A%2F%2Fexodus.desync.com%3A6969","seeders":6,"leechers":0,"uploader":"xxxlavalxxx","files":4,"time":1435787937,"description":" &lt;a href=&quot;http://extraimago.com/image/7di&quot; rel=&quot;nofollow&quot; target=&quot;_NEW&quot;&gt;http://extraimago.com/image/7di&lt;/a&gt;\n &lt;a href=&quot;\nhttp://www.imdb.com/title/tt1886680/&quot; rel=&quot;nofollow&quot; target=&quot;_NEW&quot;&gt;\nhttp://www.imdb.com/title/tt1886680/&lt;/a&gt;\n\n\nA comedy set in the world of two pickup artists that is centered on the trouble they get into through the lies they tell.\n\nDirector: Nathan Apffel\nWriters: Nathan Anderson (screenplay), Nathan Anderson (story)\nStars: Nathan Anderson, Eric Roberts, Mindy Robinson\nGenres: Comedy\nCountry: USA\n\n\nSource: DL.1080p.BluRay.x264-MOViEiT [THANKS]\n\nGeneral\nComplete name: Chicks.Dig.Gay.Guys.2014.BRRip.x264-MenaceIISociety.mp4\nFormat: MPEG-4\nFormat profile: Base Media\nCodec ID: isom\nFile size: 965 MiB\nDuration: 1h 22mn\nOverall bit rate mode: Variable\nOverall bit rate: 1 636 Kbps\nEncoded date: UTC 2015-07-01 18:59:56\nTagged date: UTC 2015-07-01 18:59:56\n\nVideo\nID: 1\nFormat: AVC\nFormat/Info: Advanced Video Codec\nFormat profile: &lt;a class=&quot;__cf_email__&quot; href=&quot;/cdn-cgi/l/email-protection&quot; data-cfemail=&quot;175f7e707f575b233926&quot;&gt;[email&amp;#160;protected]&lt;/a&gt;&lt;script data-cfhash='f9e31' type=&quot;text/javascript&quot;&gt;\n/* &lt;![CDATA[ */!function(){try{var t=&quot;currentScript&quot;in document?document.currentScript:function(){for(var t=document.getElementsByTagName(&quot;script&quot;),e=t.length;e--;)if(t[e].getAttribute(&quot;data-cfhash&quot;))return t[e]}();if(t&amp;&amp;t.previousSibling){var e,r,n,i,c=t.previousSibling,a=c.getAttribute(&quot;data-cfemail&quot;);if(a){for(e=&quot;&quot;,r=parseInt(a.substr(0,2),16),n=2;a.length-n;n+=2)i=parseInt(a.substr(n,2),16)^r,e+=String.fromCharCode(i);e=document.createTextNode(e),c.parentNode.replaceChild(e,c)}t.parentNode.removeChild(t);}}catch(u){}}()/* ]]&gt; */&lt;/script&gt;\nFormat settings, CABAC: Yes\nFormat settings, ReFrames: 3 frames\nCodec ID: avc1\nCodec ID/Info: Advanced Video Coding\nDuration: 1h 22mn\nBit rate mode: Variable\nBit rate: 1 297 Kbps\nMaximum bit rate: 40.0 Mbps\nWidth: 720 pixels\nHeight: 400 pixels\nDisplay aspect ratio: 16:9\nFrame rate mode: Constant\nFrame rate: 23.976 fps\nColor space: YUV\nChroma subsampling: 4:2:0\nBit depth: 8 bits\nScan type: Progressive\nBits/(Pixel*Frame): 0.188\nStream size: 765 MiB (79%)\nWriting library: x264 core 146 r2538 121396c\n\nAudio\nID: 2\nFormat: AAC\nFormat/Info: Advanced Audio Codec\nFormat profile: LC\nCodec ID: 40\nDuration: 1h 22mn\nBit rate mode: Variable\nBit rate: 335 Kbps\nMaximum bit rate: 376 Kbps\nChannel(s): 6 channels\nChannel positions: Front: L C R, Side: L R, LFE\nSampling rate: 48.0 KHz\nCompression mode: Lossy\nStream size: 198 MiB (20%)\n\n &lt;a href=&quot;\nhttp://extraimago.com/image/7dl&quot; rel=&quot;nofollow&quot; target=&quot;_NEW&quot;&gt;\nhttp://extraimago.com/image/7dl&lt;/a&gt; &lt;a href=&quot;\nhttp://extraimago.com/image/7dI&quot; rel=&quot;nofollow&quot; target=&quot;_NEW&quot;&gt;\nhttp://extraimago.com/image/7dI&lt;/a&gt; &lt;a href=&quot;\nhttp://extraimago.com/image/7dd&quot; rel=&quot;nofollow&quot; target=&quot;_NEW&quot;&gt;\nhttp://extraimago.com/image/7dd&lt;/a&gt; &lt;a href=&quot;\nhttp://extraimago.com/image/7dh&quot; rel=&quot;nofollow&quot; target=&quot;_NEW&quot;&gt;\nhttp://extraimago.com/image/7dh&lt;/a&gt; &lt;a href=&quot;\nhttp://extraimago.com/image/7db&quot; rel=&quot;nofollow&quot; target=&quot;_NEW&quot;&gt;\nhttp://extraimago.com/image/7db&lt;/a&gt;","torrent":{"xt":"urn:btih:a8583ce6d065f41f74a28be80df181a49fb75f6e","amp;dn":"Chicks.Dig.Gay.Guys.2014.BRRip.x264-MenaceIISociety","amp;tr":["udp%3A%2F%2Ftracker.openbittorrent.com%3A80","udp%3A%2F%2Fopen.demonii.com%3A1337","udp%3A%2F%2Ftracker.coppersurfer.tk%3A6969","udp%3A%2F%2Fexodus.desync.com%3A6969"],"infoHash":"a8583ce6d065f41f74a28be80df181a49fb75f6e","infoHashBuffer":{"type":"Buffer","data":[168,88,60,230,208,101,244,31,116,162,139,232,13,241,129,164,159,183,95,110]},"announce":[],"urlList":[]}}